<?xml version="1.0" encoding="utf-8"?>
<!-- Designed by Vexels.com - 2016 All Rights Reserved - https://vexels.com/terms-and-conditions/  -->

<svg version="1.1" id="Capa_1" xmlns="http://www.w3.org/2000/svg" xmlns:xlink="http://www.w3.org/1999/xlink" x="0px" y="0px"
	 width="1200px" height="1200px" viewBox="0 0 1200 1200" enable-background="new 0 0 1200 1200" xml:space="preserve">
<g id="VEXELS">
</g>
<g>
	<g id="BACKGROUND">
		<g>
			<circle fill="#B92B27" cx="599.999" cy="600" r="549.999"/>
			<path fill="#FFFFFF" d="M758.603,784.293c11.959,12.915,22.289,26.574,35.078,37.325c24.164,20.313,65.336,14.457,73.902-24.912
				c0.377-1.721,1.078-3.368,1.695-5.248c14.254,0,28.184,0,44.447,0c-0.908,9.654-1.188,19.183-2.783,28.488
				c-8.986,52.425-44.373,92.543-92.662,102.245c-54.58,10.958-101.971-2.232-137.482-47.511
				c-8.582-10.959-16.018-22.874-23.4-34.717c-2.625-4.203-5.068-5.223-9.543-3.821C523.034,875.251,349.011,802.175,299.9,646.709
				c-44.613-141.23,22.289-293.94,171.893-352.194c131.205-51.091,282.08-3.355,357.592,112.747
				c27.25,41.912,41.727,88.1,43.814,138.053c4.068,96.973-32.949,174.842-109.285,234.354
				C762.972,780.423,762.107,781.244,758.603,784.293z M713.75,703.022c3.049-8.619,6.252-16.452,8.602-24.53
				c10.277-35.301,13.025-71.563,13.369-108.108c0.453-46.626-1.859-92.954-16.791-137.659
				c-14.143-42.348-38.445-76.301-82.762-90.375c-17.357-5.519-36.197-7.874-54.49-8.615c-38.611-1.568-74.274,7.932-102.774,35.89
				c-24.253,23.794-36.612,54.015-44.087,86.448c-11.647,50.516-12.385,101.764-8.555,153.127
				c2.186,29.421,7.275,58.431,17.93,86.175c15.1,39.272,39.78,69.359,80.973,83.184c25.508,8.547,51.72,10.069,78.248,6.547
				c6.996-0.923,13.857-2.846,22.676-4.716c-9.379-15.795-17.021-30.319-26.188-43.81c-23.352-34.378-53.568-55.217-98.271-45.655
				c-3.834-9.204-7.09-18.36-11.42-26.956c-2.982-5.934-1.795-8.963,3.607-12.456c20.975-13.563,44.246-19.806,68.72-21.825
				c49.341-4.054,93.624,7.15,128.255,45.027C698.705,683.372,705.619,692.943,713.75,703.022z"/>
			<path opacity="0.2" enable-background="new    " d="M803.326,373.202c9.504,10.604,18.197,21.978,26.078,34.085
				c27.221,41.883,41.688,88.074,43.799,138.041c4.064,96.974-32.947,174.843-109.279,234.365c-0.934,0.729-1.832,1.551-5.32,4.59
				c11.982,12.92,22.299,26.569,35.098,37.335c24.135,20.313,65.326,14.466,73.902-24.903c0.367-1.749,1.059-3.372,1.662-5.242
				h44.48c-0.928,9.63-1.217,19.178-2.797,28.483c-8.973,52.4-44.361,92.538-92.668,102.25
				c-54.551,10.924-101.961-2.237-137.473-47.525c-8.568-10.978-15.998-22.874-23.396-34.702c-2.639-4.223-5.072-5.237-9.557-3.812
				c-15.307,4.793-31.396,7.919-47.852,9.378c-76.09,6.784-161.112-21.245-223.395-78.729l223.395,223.392l141.414,141.42
				c200.768-53.26,356.486-217.221,397.797-422.531L803.326,373.202z"/>
			<path opacity="0.1" enable-background="new    " d="M913.746,791.473c-0.932,9.63-1.217,19.178-2.803,28.483
				c-8.977,52.4-44.365,92.538-92.662,102.25c-54.557,10.924-101.965-2.237-137.473-47.525c-8.572-10.978-16.004-22.874-23.4-34.702
				c-2.645-4.223-5.078-5.237-9.553-3.812c-15.316,4.793-31.406,7.919-47.856,9.378v-60.044c1.134-0.121,2.276-0.242,3.413-0.401
				c6.982-0.938,13.857-2.846,22.666-4.716c-9.301-15.761-16.982-30.228-26.079-43.669V629.87
				c34.288,3.406,65.163,16.819,90.8,44.844c7.926,8.658,14.83,18.244,22.951,28.313c3.049-8.61,6.262-16.447,8.615-24.53
				c10.277-35.306,12.998-71.583,13.365-108.104c0.443-46.636-1.865-92.954-16.781-137.677
				c-14.176-42.33-38.471-76.293-82.791-90.39c-11.578-3.655-23.846-5.931-36.159-7.233v-60.281
				c66.179,4.303,129.759,30.305,179.356,74.424l23.977,23.966c9.504,10.604,18.195,21.978,26.082,34.085
				c27.221,41.883,41.678,88.074,43.795,138.041c4.059,96.974-32.949,174.843-109.281,234.365c-0.932,0.729-1.83,1.551-5.318,4.59
				c11.982,12.92,22.297,26.569,35.098,37.335c24.129,20.313,65.324,14.466,73.896-24.903c0.367-1.749,1.063-3.372,1.662-5.242
				H913.746z"/>
			<path opacity="0.1" enable-background="new    " d="M735.724,570.394c-0.367,36.521-3.086,72.798-13.363,108.104
				c-2.359,8.088-5.566,15.925-8.611,24.53c-8.127-10.074-15.035-19.655-22.955-28.313c-25.633-28.034-56.512-41.438-90.801-44.844
				V335.094c12.309,1.303,24.582,3.578,36.158,7.233c44.322,14.097,68.615,48.06,82.787,90.39
				C733.861,477.445,736.169,523.762,735.724,570.394z"/>
			<line fill="none" x1="599.994" y1="785.501" x2="599.994" y2="736.715"/>
		</g>
	</g>
</g>
</svg>
